<svg width="512" height="512" viewBox="0 0 512 512" fill="none" xmlns="http://www.w3.org/2000/svg">
  <defs>
    <linearGradient id="bg" x1="80" y1="60" x2="430" y2="470" gradientUnits="userSpaceOnUse">
      <stop offset="0" stop-color="#0E1430"/>
      <stop offset="0.45" stop-color="#161F45"/>
      <stop offset="1" stop-color="#0A0F24"/>
    </linearGradient>
    <radialGradient id="ringGlow" cx="0" cy="0" r="1" gradientUnits="userSpaceOnUse" gradientTransform="translate(256 256) rotate(90) scale(180)">
      <stop stop-color="#6EE7F9" stop-opacity="0.45"/>
      <stop offset="1" stop-color="#6EE7F9" stop-opacity="0"/>
    </radialGradient>
    <linearGradient id="shell" x1="176" y1="126" x2="344" y2="318" gradientUnits="userSpaceOnUse">
      <stop stop-color="#DCEBFF"/>
      <stop offset="1" stop-color="#88A3C6"/>
    </linearGradient>
    <linearGradient id="visor" x1="196" y1="176" x2="316" y2="250" gradientUnits="userSpaceOnUse">
      <stop stop-color="#B7F7FF"/>
      <stop offset="1" stop-color="#2DD4E9"/>
    </linearGradient>
  </defs>

  <circle cx="256" cy="256" r="242" fill="url(#bg)"/>
  <circle cx="256" cy="256" r="238" stroke="rgba(173,213,255,0.35)" stroke-width="4"/>
  <circle cx="256" cy="256" r="178" fill="url(#ringGlow)"/>

  <ellipse cx="256" cy="438" rx="92" ry="14" fill="rgba(0,0,0,0.35)"/>

  <path d="M256 98C273.673 98 288 83.6731 288 66C288 48.3269 273.673 34 256 34C238.327 34 224 48.3269 224 66C224 83.6731 238.327 98 256 98Z" fill="#6EE7F9" fill-opacity="0.15"/>
  <rect x="248" y="72" width="16" height="42" rx="8" fill="#8AA7CA"/>
  <circle cx="256" cy="62" r="10" fill="#6EE7F9"/>

  <rect x="160" y="126" width="192" height="206" rx="52" fill="url(#shell)"/>
  <rect x="186" y="164" width="140" height="88" rx="28" fill="#0D152F"/>
  <rect x="196" y="174" width="120" height="68" rx="22" fill="url(#visor)"/>

  <circle cx="228" cy="208" r="12" fill="#0A1126"/>
  <circle cx="284" cy="208" r="12" fill="#0A1126"/>
  <circle cx="224" cy="204" r="3.5" fill="#E7FCFF"/>
  <circle cx="280" cy="204" r="3.5" fill="#E7FCFF"/>

  <rect x="210" y="272" width="92" height="10" rx="5" fill="#304868"/>
  <rect x="198" y="292" width="116" height="10" rx="5" fill="#3B5778"/>

  <rect x="138" y="184" width="22" height="86" rx="11" fill="#90A8C7"/>
  <rect x="352" y="184" width="22" height="86" rx="11" fill="#90A8C7"/>
  <circle cx="149" cy="205" r="4" fill="#6EE7F9"/>
  <circle cx="363" cy="205" r="4" fill="#6EE7F9"/>

  <path d="M98 350C146 310 186 354 232 326" stroke="#6EE7F9" stroke-opacity="0.35" stroke-width="4" stroke-linecap="round"/>
  <path d="M280 326C326 354 366 310 414 350" stroke="#6EE7F9" stroke-opacity="0.35" stroke-width="4" stroke-linecap="round"/>
</svg>
